<svg id="svg" version="1.1" width="400" height="400" viewBox="0 0 400 400" xmlns="http://www.w3.org/2000/svg" xmlns:xlink="http://www.w3.org/1999/xlink" ><g id="svgg"><path id="path0" d="M105.867 254.933 L 105.867 278.933 129.733 278.933 L 153.600 278.933 153.600 254.933 L 153.600 230.933 129.733 230.933 L 105.867 230.933 105.867 254.933 " stroke="none" fill="#ec2c7c" fill-rule="evenodd"></path><path id="path1" d="M105.333 132.400 L 105.333 224.533 129.600 224.533 L 153.867 224.533 153.867 199.709 L 153.867 174.885 182.600 175.013 C 213.994 175.153,219.283 175.360,228.400 176.804 C 244.329 179.327,253.864 188.999,255.258 204.045 C 256.902 221.798,246.843 234.695,229.404 237.191 C 223.377 238.054,218.548 238.191,189.533 238.321 L 160.267 238.452 160.267 258.693 L 160.267 278.933 172.733 278.930 C 231.565 278.914,249.579 277.792,262.533 273.336 C 301.806 259.826,318.655 206.658,294.048 173.889 C 286.925 164.403,276.539 157.261,263.600 152.949 C 262.427 152.558,261.288 152.178,261.070 152.103 C 260.836 152.024,261.877 151.340,263.603 150.440 C 292.844 135.194,302.842 97.257,284.873 69.733 C 274.646 54.068,260.040 44.900,240.933 42.152 C 228.825 40.411,222.847 40.270,160.600 40.268 L 105.333 40.267 105.333 132.400 M216.533 80.530 C 226.153 81.010,231.056 82.258,236.113 85.517 C 249.508 94.147,250.343 117.150,237.632 127.311 C 228.830 134.346,224.309 134.926,178.200 134.931 L 153.867 134.933 153.867 107.424 L 153.867 79.915 182.467 80.086 C 198.197 80.180,213.527 80.380,216.533 80.530 M305.692 284.838 C 302.560 285.381,298.580 289.266,296.989 293.333 C 294.548 299.575,293.591 306.371,292.846 322.751 C 292.701 325.949,292.543 327.296,292.297 327.448 C 291.902 327.692,286.654 328.628,282.982 329.109 C 281.179 329.345,280.433 329.555,280.262 329.876 C 279.971 330.419,280.632 331.467,281.265 331.467 C 283.682 331.467,287.023 333.009,287.772 334.470 C 290.953 340.677,284.457 352.461,278.726 350.879 C 272.319 349.110,273.255 328.766,279.829 326.889 C 281.193 326.499,281.600 326.203,281.600 325.600 C 281.600 322.927,275.912 325.829,274.567 329.188 C 270.209 340.075,272.880 353.134,279.457 353.102 C 288.737 353.058,295.161 335.129,287.333 331.122 L 286.533 330.713 287.200 330.567 C 288.686 330.243,292.072 329.600,292.295 329.600 C 292.727 329.600,292.579 333.497,292.133 333.867 C 291.633 334.282,291.611 335.362,292.098 335.550 C 292.366 335.653,292.514 336.622,292.658 339.229 C 292.930 344.137,293.463 348.016,293.905 348.296 C 294.915 348.936,295.395 348.173,295.855 345.200 C 296.550 340.709,297.619 337.333,298.346 337.333 C 298.458 337.333,299.178 338.394,299.945 339.690 C 300.713 340.987,301.628 342.317,301.980 342.648 C 303.334 343.920,304.400 342.473,303.117 341.105 C 302.754 340.717,302.085 339.655,301.630 338.745 C 299.382 334.240,297.249 333.970,295.618 337.983 C 294.910 339.725,294.661 339.407,294.691 336.800 L 294.707 335.333 298.584 332.800 C 314.938 322.112,321.119 311.292,318.692 297.600 C 317.226 289.331,311.605 283.814,305.692 284.838 M310.275 287.669 C 316.034 290.608,319.038 301.680,316.263 309.744 C 313.722 317.129,305.520 326.604,297.211 331.752 C 294.456 333.459,294.399 333.452,294.404 331.400 C 294.409 329.407,294.524 329.188,295.734 328.875 C 297.200 328.494,297.122 327.104,295.627 326.982 L 294.588 326.896 294.765 322.715 C 295.616 302.646,297.778 293.168,302.473 288.924 C 304.704 286.908,307.805 286.409,310.275 287.669 M89.842 289.572 C 78.416 293.228,70.145 320.893,73.889 342.933 C 74.594 347.080,74.551 346.979,75.556 346.882 C 76.599 346.781,76.601 346.693,75.621 342.012 C 70.812 319.037,83.860 286.507,95.944 291.342 C 103.836 294.500,104.372 311.898,97.029 326.565 C 95.409 329.799,95.187 330.410,95.448 330.898 C 95.830 331.613,96.871 331.642,97.826 330.964 C 100.590 329.000,105.797 327.785,107.821 328.630 C 111.918 330.342,111.627 338.750,107.254 345.025 C 107.051 345.316,106.441 345.201,104.006 344.414 C 91.821 340.474,82.232 345.149,85.844 353.269 C 90.963 364.777,112.800 349.804,112.800 334.785 C 112.800 327.644,108.533 324.735,101.626 327.167 L 98.691 328.202 99.333 326.935 C 103.083 319.534,104.940 306.084,103.304 298.167 C 101.899 291.365,96.004 287.601,89.842 289.572 M233.692 294.985 C 233.334 295.539,233.255 318.492,233.594 323.733 C 234.021 330.348,234.073 330.641,234.856 330.838 C 236.028 331.132,236.098 330.750,235.708 326.218 C 235.464 323.375,235.344 317.567,235.340 308.400 L 235.333 294.800 234.625 294.718 C 234.236 294.673,233.816 294.793,233.692 294.985 M161.054 315.640 C 160.639 315.752,159.976 318.711,159.481 322.668 C 158.732 328.656,152.392 343.497,150.071 344.699 C 149.669 344.906,149.267 345.373,149.175 345.736 C 148.629 347.913,146.896 343.381,145.612 336.422 C 144.488 330.325,143.752 329.136,141.461 329.711 C 139.888 330.106,136.535 336.801,134.554 343.505 L 133.895 345.733 133.881 335.955 C 133.866 325.468,133.854 325.333,132.937 325.333 C 131.891 325.333,131.810 325.805,131.639 332.933 C 131.366 344.314,131.984 350.185,133.496 350.564 C 134.498 350.816,134.565 350.680,136.549 344.360 C 138.565 337.937,139.006 336.834,140.771 333.796 C 142.486 330.842,142.699 331.125,144.009 338.099 C 145.142 344.132,146.040 346.521,147.812 348.223 C 148.807 349.177,149.923 349.308,150.079 348.487 C 150.126 348.242,150.565 347.616,151.056 347.097 C 153.134 344.893,156.277 339.402,158.298 334.442 C 159.184 332.268,159.465 331.792,159.567 332.292 C 160.342 336.084,161.116 338.680,162.572 342.369 C 164.255 346.634,164.427 347.467,163.624 347.467 C 161.856 347.467,156.313 349.920,153.798 351.816 C 149.817 354.817,150.232 357.729,154.990 360.172 C 161.456 363.490,169.691 355.868,167.057 349.003 C 166.932 348.679,167.305 348.505,168.850 348.166 C 172.733 347.312,172.436 347.298,172.781 348.344 C 174.458 353.425,179.448 354.647,183.782 351.038 C 190.852 345.152,192.377 334.113,186.533 331.122 L 185.733 330.713 186.400 330.565 C 188.021 330.208,195.318 328.800,195.551 328.800 C 195.714 328.800,195.743 330.776,195.629 334.200 C 195.309 343.818,196.037 350.198,197.496 350.564 C 198.498 350.816,198.565 350.680,200.549 344.360 C 202.565 337.937,203.006 336.834,204.771 333.796 C 206.486 330.842,206.699 331.125,208.009 338.099 C 209.142 344.132,210.040 346.521,211.812 348.223 C 213.685 350.020,215.049 348.577,213.251 346.701 C 211.496 344.870,210.816 342.951,209.612 336.422 C 208.488 330.325,207.752 329.136,205.461 329.711 C 203.888 330.106,200.535 336.801,198.554 343.505 L 197.895 345.733 197.881 335.955 C 197.873 330.577,197.794 325.987,197.705 325.755 C 197.360 324.857,195.733 325.433,195.733 326.453 C 195.733 326.798,195.526 326.935,195.000 326.940 C 194.597 326.944,192.578 327.291,190.514 327.712 C 188.450 328.133,185.171 328.695,183.227 328.960 C 180.570 329.322,179.636 329.550,179.460 329.880 C 179.171 330.419,179.835 331.467,180.465 331.467 C 182.882 331.467,186.223 333.009,186.972 334.470 C 190.153 340.677,183.657 352.461,177.926 350.879 C 171.519 349.110,172.455 328.766,179.029 326.889 C 180.807 326.381,181.339 325.579,180.409 324.808 C 179.824 324.322,176.725 325.428,175.455 326.576 C 173.315 328.509,171.962 333.879,171.839 340.930 L 171.760 345.460 169.413 346.057 C 166.499 346.798,166.476 346.798,166.254 346.067 C 166.155 345.737,165.371 343.705,164.514 341.552 C 161.389 333.709,160.683 328.166,161.938 321.333 C 162.671 317.340,162.727 316.366,162.253 315.892 C 161.819 315.457,161.769 315.447,161.054 315.640 M120.622 321.455 C 115.725 323.585,112.576 335.606,114.681 344.133 C 116.255 350.507,120.904 353.728,124.885 351.204 C 127.115 349.789,130.981 345.701,130.883 344.859 C 130.720 343.448,129.958 343.815,127.245 346.608 C 123.854 350.100,121.370 351.033,119.554 349.495 C 118.492 348.596,117.122 345.980,117.467 345.510 C 117.613 345.311,118.333 344.404,119.067 343.497 C 127.244 333.374,128.322 318.106,120.622 321.455 M123.043 324.021 C 125.410 326.833,123.093 334.623,117.744 341.839 L 116.677 343.278 116.476 342.372 C 116.115 340.752,116.214 333.853,116.628 331.733 C 117.762 325.925,121.184 321.811,123.043 324.021 M245.609 325.582 C 245.258 326.239,245.250 337.648,245.598 342.000 C 246.539 353.769,248.811 354.149,250.384 342.800 C 251.091 337.693,252.708 331.467,253.327 331.467 C 253.433 331.467,253.599 332.775,253.696 334.374 C 254.044 340.098,254.972 345.522,256.286 349.510 C 257.783 354.051,259.882 350.395,263.046 337.733 C 263.706 335.093,264.482 332.273,264.770 331.467 L 265.294 330.000 265.322 331.600 C 265.657 350.805,267.633 357.614,272.900 357.713 C 274.771 357.748,274.532 356.363,272.536 355.601 C 269.287 354.361,268.015 349.427,267.447 335.867 C 267.094 327.427,267.093 327.423,265.738 327.102 C 263.997 326.690,263.699 327.390,260.392 339.659 C 258.137 348.026,258.035 348.288,257.636 346.789 C 256.705 343.291,255.923 337.926,255.754 333.867 C 255.247 321.696,250.047 327.897,248.374 342.667 C 247.993 346.025,247.706 343.093,247.550 334.267 C 247.462 329.232,247.291 325.597,247.134 325.400 C 246.736 324.901,245.922 324.998,245.609 325.582 M311.034 334.250 C 308.041 335.553,308.828 338.999,312.351 340.014 C 316.210 341.126,317.068 341.987,315.688 343.367 C 314.274 344.780,311.529 344.319,310.787 342.543 C 310.253 341.266,308.614 341.082,308.923 342.333 C 310.064 346.963,317.861 346.734,317.866 342.071 C 317.867 340.431,316.856 339.565,314.000 338.762 C 311.300 338.003,310.933 337.785,310.933 336.942 C 310.933 335.181,314.156 334.652,315.449 336.200 C 316.183 337.080,317.601 337.432,317.599 336.733 C 317.593 334.589,313.667 333.104,311.034 334.250 M318.933 334.800 C 318.933 335.448,318.987 335.467,320.800 335.467 L 322.667 335.467 322.667 340.400 L 322.667 345.333 323.467 345.333 L 324.267 345.333 324.267 340.400 L 324.267 335.467 326.133 335.467 C 327.947 335.467,328.000 335.448,328.000 334.800 L 328.000 334.133 323.467 334.133 L 318.933 334.133 318.933 334.800 M97.942 345.073 C 100.191 345.330,105.170 346.720,105.447 347.167 C 105.667 347.524,103.089 350.224,101.012 351.813 C 95.376 356.125,90.688 356.386,88.066 352.535 C 85.344 348.536,88.034 345.686,95.333 344.835 C 95.480 344.818,96.654 344.925,97.942 345.073 M235.911 347.378 C 235.297 347.992,236.470 349.600,237.533 349.600 C 238.302 349.600,238.557 348.679,238.016 347.854 C 237.603 347.224,236.349 346.940,235.911 347.378 M165.257 351.647 C 165.541 355.779,162.604 358.678,158.152 358.661 C 155.858 358.652,153.333 357.138,153.333 355.771 C 153.333 354.396,157.632 351.478,161.710 350.084 C 165.130 348.915,165.068 348.888,165.257 351.647 " stroke="none" fill="#040404" fill-rule="evenodd"></path></g></svg>