<svg id="svg" version="1.1" width="400" height="400" viewBox="0 0 400 400" xmlns="http://www.w3.org/2000/svg" xmlns:xlink="http://www.w3.org/1999/xlink" ><g id="svgg"><path id="path0" d="M105.333 132.133 L 105.333 224.267 129.600 224.267 L 153.867 224.267 153.867 199.443 L 153.867 174.618 182.600 174.746 C 213.994 174.886,219.283 175.093,228.400 176.537 C 244.329 179.061,253.864 188.732,255.258 203.778 C 256.902 221.532,246.843 234.428,229.404 236.925 C 223.377 237.788,218.548 237.924,189.533 238.054 L 160.267 238.186 160.267 258.426 L 160.267 278.667 172.733 278.663 C 231.565 278.648,249.579 277.525,262.533 273.069 C 301.806 259.559,318.655 206.391,294.048 173.622 C 286.925 164.136,276.539 156.994,263.600 152.683 C 262.427 152.292,261.288 151.911,261.070 151.837 C 260.836 151.757,261.877 151.074,263.603 150.174 C 292.844 134.928,302.842 96.991,284.873 69.467 C 274.650 53.808,260.032 44.632,240.933 41.885 C 228.825 40.144,222.847 40.004,160.600 40.002 L 105.333 40.000 105.333 132.133 M216.533 80.263 C 226.153 80.743,231.056 81.992,236.113 85.250 C 249.508 93.881,250.343 116.883,237.632 127.044 C 228.833 134.077,224.358 134.652,178.333 134.662 L 153.867 134.667 153.867 107.157 L 153.867 79.648 182.467 79.819 C 198.197 79.914,213.527 80.113,216.533 80.263 M305.692 284.572 C 302.560 285.114,298.580 288.999,296.989 293.067 C 294.548 299.309,293.591 306.105,292.846 322.484 C 292.701 325.682,292.543 327.029,292.297 327.181 C 291.902 327.426,286.654 328.361,282.982 328.842 C 281.179 329.078,280.433 329.289,280.262 329.609 C 279.971 330.152,280.632 331.200,281.265 331.200 C 283.682 331.200,287.023 332.742,287.772 334.204 C 290.953 340.411,284.457 352.195,278.726 350.612 C 272.319 348.843,273.255 328.499,279.829 326.622 C 281.193 326.233,281.600 325.936,281.600 325.333 C 281.600 322.660,275.912 325.562,274.567 328.922 C 270.209 339.808,272.880 352.867,279.457 352.836 C 288.737 352.791,295.161 334.862,287.333 330.855 L 286.533 330.446 287.200 330.300 C 288.686 329.976,292.072 329.333,292.295 329.333 C 292.727 329.333,292.579 333.230,292.133 333.600 C 291.633 334.015,291.611 335.096,292.098 335.283 C 292.366 335.386,292.514 336.355,292.658 338.963 C 292.930 343.870,293.463 347.749,293.905 348.029 C 294.915 348.669,295.395 347.906,295.855 344.933 C 296.550 340.442,297.619 337.067,298.346 337.067 C 298.458 337.067,299.178 338.127,299.945 339.424 C 300.713 340.720,301.628 342.051,301.980 342.381 C 303.334 343.653,304.400 342.206,303.117 340.838 C 302.754 340.450,302.085 339.389,301.630 338.478 C 299.382 333.974,297.249 333.703,295.618 337.716 C 294.910 339.458,294.661 339.140,294.691 336.533 L 294.707 335.067 298.584 332.533 C 314.938 321.846,321.119 311.025,318.692 297.333 C 317.226 289.065,311.605 283.547,305.692 284.572 M310.275 287.403 C 316.034 290.341,319.038 301.413,316.263 309.477 C 313.722 316.863,305.520 326.338,297.211 331.485 C 294.456 333.192,294.399 333.185,294.404 331.133 C 294.409 329.140,294.524 328.921,295.734 328.608 C 297.200 328.228,297.122 326.837,295.627 326.715 L 294.588 326.630 294.765 322.448 C 295.616 302.379,297.778 292.901,302.473 288.657 C 304.704 286.641,307.805 286.143,310.275 287.403 M89.842 289.306 C 78.416 292.962,70.145 320.626,73.889 342.667 C 74.594 346.814,74.551 346.713,75.556 346.615 C 76.599 346.514,76.601 346.426,75.621 341.745 C 70.812 318.770,83.860 286.240,95.944 291.075 C 103.836 294.233,104.372 311.631,97.029 326.298 C 95.409 329.532,95.187 330.143,95.448 330.632 C 95.830 331.346,96.871 331.375,97.826 330.697 C 100.590 328.733,105.797 327.518,107.821 328.364 C 111.918 330.076,111.627 338.483,107.254 344.758 C 107.051 345.049,106.441 344.934,104.006 344.147 C 91.821 340.208,82.232 344.883,85.844 353.002 C 90.963 364.510,112.800 349.537,112.800 334.519 C 112.800 327.377,108.533 324.468,101.626 326.901 L 98.691 327.935 99.333 326.668 C 103.083 319.267,104.940 305.818,103.304 297.901 C 101.899 291.099,96.004 287.334,89.842 289.306 M233.692 294.718 C 233.334 295.273,233.255 318.226,233.594 323.467 C 234.021 330.081,234.073 330.375,234.856 330.571 C 236.028 330.865,236.098 330.484,235.708 325.951 C 235.464 323.108,235.344 317.300,235.340 308.133 L 235.333 294.533 234.625 294.451 C 234.236 294.406,233.816 294.526,233.692 294.718 M161.054 315.373 C 160.639 315.486,159.976 318.444,159.481 322.401 C 158.732 328.389,152.392 343.231,150.071 344.432 C 149.669 344.640,149.267 345.107,149.175 345.470 C 148.629 347.646,146.896 343.114,145.612 336.155 C 144.488 330.058,143.752 328.869,141.461 329.444 C 139.888 329.839,136.535 336.535,134.554 343.239 L 133.895 345.467 133.881 335.688 C 133.866 325.202,133.854 325.067,132.937 325.067 C 131.891 325.067,131.810 325.539,131.639 332.667 C 131.366 344.047,131.984 349.918,133.496 350.298 C 134.498 350.549,134.565 350.413,136.549 344.094 C 138.565 337.670,139.006 336.567,140.771 333.529 C 142.486 330.576,142.699 330.859,144.009 337.833 C 145.142 343.865,146.040 346.255,147.812 347.956 C 148.807 348.910,149.923 349.041,150.079 348.221 C 150.126 347.976,150.565 347.350,151.056 346.830 C 153.134 344.627,156.277 339.135,158.298 334.175 C 159.184 332.001,159.465 331.525,159.567 332.025 C 160.342 335.818,161.116 338.413,162.572 342.102 C 164.255 346.368,164.427 347.200,163.624 347.200 C 161.856 347.200,156.313 349.654,153.798 351.550 C 149.817 354.550,150.232 357.463,154.990 359.905 C 161.456 363.223,169.691 355.601,167.057 348.737 C 166.932 348.413,167.305 348.239,168.850 347.899 C 172.733 347.045,172.436 347.032,172.781 348.077 C 174.458 353.159,179.448 354.380,183.782 350.771 C 190.852 344.885,192.377 333.846,186.533 330.855 L 185.733 330.446 186.400 330.299 C 188.021 329.941,195.318 328.533,195.551 328.533 C 195.714 328.533,195.743 330.509,195.629 333.933 C 195.309 343.551,196.037 349.932,197.496 350.298 C 198.498 350.549,198.565 350.413,200.549 344.094 C 202.565 337.670,203.006 336.567,204.771 333.529 C 206.486 330.576,206.699 330.859,208.009 337.833 C 209.142 343.865,210.040 346.255,211.812 347.956 C 213.685 349.753,215.049 348.311,213.251 346.435 C 211.496 344.603,210.816 342.685,209.612 336.155 C 208.488 330.058,207.752 328.869,205.461 329.444 C 203.888 329.839,200.535 336.535,198.554 343.239 L 197.895 345.467 197.881 335.688 C 197.873 330.310,197.794 325.720,197.705 325.488 C 197.360 324.590,195.733 325.166,195.733 326.187 C 195.733 326.531,195.526 326.669,195.000 326.673 C 194.597 326.677,192.578 327.025,190.514 327.446 C 188.450 327.867,185.171 328.428,183.227 328.693 C 180.570 329.056,179.636 329.284,179.460 329.613 C 179.171 330.152,179.835 331.200,180.465 331.200 C 182.882 331.200,186.223 332.742,186.972 334.204 C 190.153 340.411,183.657 352.195,177.926 350.612 C 171.519 348.843,172.455 328.499,179.029 326.622 C 180.807 326.114,181.339 325.312,180.409 324.541 C 179.824 324.056,176.725 325.162,175.455 326.309 C 173.315 328.243,171.962 333.612,171.839 340.663 L 171.760 345.193 169.413 345.790 C 166.499 346.531,166.476 346.531,166.254 345.800 C 166.155 345.470,165.371 343.439,164.514 341.286 C 161.389 333.443,160.683 327.899,161.938 321.067 C 162.671 317.074,162.727 316.099,162.253 315.625 C 161.819 315.191,161.769 315.180,161.054 315.373 M120.622 321.188 C 115.725 323.319,112.576 335.339,114.681 343.867 C 116.255 350.241,120.904 353.462,124.885 350.937 C 127.115 349.523,130.981 345.434,130.883 344.593 C 130.720 343.182,129.958 343.548,127.245 346.342 C 123.854 349.834,121.370 350.766,119.554 349.228 C 118.492 348.329,117.122 345.713,117.467 345.244 C 117.613 345.044,118.333 344.138,119.067 343.230 C 127.244 333.107,128.322 317.839,120.622 321.188 M123.043 323.754 C 125.410 326.566,123.093 334.356,117.744 341.572 L 116.677 343.011 116.476 342.106 C 116.115 340.486,116.214 333.587,116.628 331.467 C 117.762 325.658,121.184 321.544,123.043 323.754 M245.609 325.316 C 245.258 325.973,245.250 337.382,245.598 341.733 C 246.539 353.502,248.811 353.882,250.384 342.533 C 251.091 337.427,252.708 331.200,253.327 331.200 C 253.433 331.200,253.599 332.508,253.696 334.108 C 254.044 339.831,254.972 345.255,256.286 349.244 C 257.783 353.784,259.882 350.128,263.046 337.467 C 263.706 334.827,264.482 332.007,264.770 331.200 L 265.294 329.733 265.322 331.333 C 265.657 350.539,267.633 357.348,272.900 357.446 C 274.771 357.481,274.532 356.096,272.536 355.334 C 269.287 354.095,268.015 349.160,267.447 335.600 C 267.094 327.160,267.093 327.156,265.738 326.835 C 263.997 326.424,263.699 327.123,260.392 339.392 C 258.137 347.759,258.035 348.021,257.636 346.522 C 256.705 343.025,255.923 337.659,255.754 333.600 C 255.247 321.430,250.047 327.630,248.374 342.400 C 247.993 345.758,247.706 342.826,247.550 334.000 C 247.462 328.966,247.291 325.330,247.134 325.133 C 246.736 324.634,245.922 324.732,245.609 325.316 M311.034 333.983 C 308.041 335.286,308.828 338.732,312.351 339.747 C 316.210 340.859,317.068 341.720,315.688 343.100 C 314.274 344.514,311.529 344.052,310.787 342.276 C 310.253 341.000,308.614 340.815,308.923 342.067 C 310.064 346.696,317.861 346.467,317.866 341.804 C 317.867 340.164,316.856 339.299,314.000 338.496 C 311.300 337.736,310.933 337.519,310.933 336.675 C 310.933 334.914,314.156 334.385,315.449 335.933 C 316.183 336.814,317.601 337.165,317.599 336.467 C 317.593 334.322,313.667 332.837,311.034 333.983 M318.933 334.533 C 318.933 335.181,318.987 335.200,320.800 335.200 L 322.667 335.200 322.667 340.133 L 322.667 345.067 323.467 345.067 L 324.267 345.067 324.267 340.133 L 324.267 335.200 326.133 335.200 C 327.947 335.200,328.000 335.181,328.000 334.533 L 328.000 333.867 323.467 333.867 L 318.933 333.867 318.933 334.533 M97.942 344.806 C 100.191 345.064,105.170 346.454,105.447 346.901 C 105.667 347.257,103.089 349.958,101.012 351.547 C 95.376 355.858,90.688 356.120,88.066 352.268 C 85.344 348.269,88.034 345.420,95.333 344.569 C 95.480 344.552,96.654 344.658,97.942 344.806 M235.911 347.111 C 235.297 347.725,236.470 349.333,237.533 349.333 C 238.302 349.333,238.557 348.412,238.016 347.587 C 237.603 346.957,236.349 346.673,235.911 347.111 M165.257 351.380 C 165.541 355.512,162.604 358.412,158.152 358.394 C 155.858 358.385,153.333 356.871,153.333 355.504 C 153.333 354.130,157.632 351.211,161.710 349.817 C 165.130 348.649,165.068 348.622,165.257 351.380 " stroke="none" fill="#fcfcfc" fill-rule="evenodd"></path><path id="path1" d="M105.867 254.667 L 105.867 278.667 129.733 278.667 L 153.600 278.667 153.600 254.667 L 153.600 230.667 129.733 230.667 L 105.867 230.667 105.867 254.667 " stroke="none" fill="#ec2c7c" fill-rule="evenodd"></path></g></svg>